<svg width="178" height="28" viewBox="0 0 178 28" fill="none" xmlns="http://www.w3.org/2000/svg">
<path fill-rule="evenodd" clip-rule="evenodd" d="M114.92 0.127963C114.33 0.353366 114.033 0.623887 113.756 1.18984L113.492 1.72806V14.0886V26.4491L113.705 26.8498C114.148 27.6786 115.065 28.0609 116.423 27.9822C117.583 27.915 118.256 27.4405 118.515 26.5072C118.576 26.2875 118.609 21.9027 118.61 14.127C118.61 1.06435 118.631 1.6116 118.099 0.842522C117.691 0.254106 117.206 0.0466563 116.168 0.0171415C115.561 -5.98177e-05 115.162 0.0352828 114.92 0.127963ZM144.129 0.140652C143.534 0.323663 143.008 0.856903 142.782 1.50529C142.616 1.98448 142.607 2.45681 142.607 10.8457C142.607 20.2891 142.615 20.4782 143.084 22.2662C143.829 25.1054 145.64 26.9869 148.347 27.7363C149.387 28.0242 152.203 28.0451 153.265 27.773C154.237 27.5241 154.985 27.2061 155.725 26.7267C157.675 25.4641 158.903 23.3553 159.319 20.5526C159.505 19.2941 159.511 16.6976 159.329 15.4985C158.886 12.5772 157.578 10.6945 155.407 9.85685C154.326 9.4396 153.445 9.29475 151.987 9.29475C149.634 9.29475 148.186 9.80572 147.331 10.9376C147.101 11.2412 147.057 11.2694 147.108 11.0807C147.524 9.53886 147.555 9.2063 147.605 5.69075C147.65 2.56312 147.638 2.16777 147.487 1.60775C147.287 0.867149 146.777 0.287756 146.165 0.104746C145.653 -0.0483739 144.688 -0.0312666 144.129 0.140652ZM1.25884 2.01522C1.05324 2.09277 0.745093 2.29194 0.574158 2.45775C-0.041018 3.05444 -0.0165049 2.50212 0.0111076 15.1356L0.0360904 26.5578L0.318696 27.0153C0.737298 27.6929 1.2687 27.9374 2.42335 27.9837C3.50043 28.0271 4.00534 27.9084 4.46555 27.5041C5.09913 26.9472 5.09876 26.9498 5.16243 22.8302C5.22499 18.7849 5.26772 18.43 5.79527 17.5664C6.1021 17.0643 6.8283 16.5933 7.53608 16.4373C7.80187 16.3789 8.67439 16.2934 9.47506 16.2476C11.5306 16.1298 12.584 15.8196 13.1949 15.1519L13.5136 14.8038L13.5146 20.5795L13.5155 26.3551L13.7385 26.8344C14.1201 27.6546 14.8477 28 16.1934 28C17.4157 28 18.0009 27.7172 18.4301 26.919L18.6323 26.5431L18.6576 15.1764C18.6858 2.50607 18.717 3.16009 18.0531 2.49573C17.5644 2.00657 16.936 1.83794 15.7754 1.88466C14.9934 1.91605 14.8091 1.95657 14.4262 2.18112C14.1372 2.3506 13.9094 2.57882 13.7717 2.83656C13.5631 3.22721 13.5602 3.28304 13.5334 7.4279L13.5064 11.6237L10.8567 11.6712C7.94547 11.7232 7.36289 11.8039 6.40612 12.2873C6.09966 12.4421 5.66594 12.7218 5.44232 12.9087C5.2186 13.0958 5.02193 13.2351 5.00521 13.2183C4.9884 13.2015 5.01705 12.6575 5.0688 12.0093C5.12055 11.3612 5.15051 9.13882 5.13539 7.0709L5.10777 3.31086L4.82517 2.85357C4.38797 2.14616 3.87169 1.9216 2.62199 1.89509C1.92698 1.88043 1.52153 1.91615 1.25884 2.01522ZM99.0278 2.0171C95.0657 2.62572 92.7206 4.83003 91.6544 8.948C91.1367 10.947 91.0449 11.8698 91.0449 15.0755C91.0449 18.2882 91.1356 19.1954 91.6605 21.2323C92.1522 23.1398 92.9125 24.4764 94.1905 25.6795C95.8218 27.2154 98.2931 28 101.499 28C105.101 28 107.327 26.8925 108.489 24.5221C109.257 22.9578 109.581 21.2279 109.66 18.2714C109.73 15.6306 109.559 14.3022 109.072 13.7239C108.629 13.1968 108.222 13.1249 105.414 13.0782C101.994 13.0211 101.329 13.1555 100.887 13.9932C100.714 14.3196 100.671 14.5494 100.671 15.1547C100.671 16.2 100.895 16.6579 101.554 16.9651C102.004 17.1747 102.14 17.1887 103.757 17.1895C105.363 17.1903 105.477 17.2018 105.413 17.3549C105.184 17.9069 105.073 18.4978 104.997 19.5601C104.93 20.5105 104.864 20.8658 104.682 21.2632C104.382 21.92 103.876 22.4147 103.165 22.7478C102.398 23.1071 101.675 23.2288 100.536 23.1905C99.7499 23.164 99.5012 23.1164 99.0541 22.9069C97.7395 22.291 96.9646 20.895 96.5746 18.4409C96.4508 17.6611 96.4141 16.8474 96.417 14.9345C96.425 9.71924 97.108 7.60686 99.0326 6.84531C99.5218 6.65167 99.7433 6.62489 100.812 6.62977C101.527 6.63306 102.398 6.70149 102.912 6.79474C104.584 7.09788 105.973 6.98047 106.68 6.47618C107.057 6.2082 107.434 5.40923 107.433 4.88201C107.431 3.28971 106.165 2.34223 103.536 1.96672C102.608 1.83418 100.031 1.86294 99.0278 2.0171ZM28.6817 9.42823C26.8846 9.77404 25.4726 10.5344 24.3765 11.7466C23.0171 13.2501 22.4083 15.3652 22.4038 18.6004C22.4013 20.3793 22.4977 21.2789 22.8249 22.5291C23.5911 25.4565 25.6144 27.2669 28.7876 27.8646C29.4426 27.988 29.9525 28.0108 31.1706 27.9713C33.0094 27.9118 33.7796 27.7383 35.1152 27.0831C35.865 26.7153 36.1436 26.5096 36.86 25.7952C37.5562 25.1009 37.7844 24.7978 38.1051 24.1413C38.804 22.7103 39.1532 20.8799 39.1532 18.6474C39.1532 15.8255 38.5778 13.5794 37.4797 12.1146C36.6343 10.9871 35.0629 9.98657 33.4716 9.56274C32.5124 9.30726 29.7184 9.22877 28.6817 9.42823ZM47.6402 9.43509C46.2938 9.74293 45.0185 10.491 44.3018 11.3935C43.735 12.1071 43.2134 13.2651 42.978 14.3317C42.7796 15.2312 42.7723 15.4543 42.771 20.7623C42.7696 26.6739 42.7694 26.672 43.2592 27.2545C43.7286 27.8129 44.1486 27.953 45.3525 27.953C46.3304 27.953 46.4722 27.9307 46.8511 27.718C47.4526 27.3803 47.772 26.8721 47.8853 26.0731C47.9366 25.7106 47.9799 23.3044 47.9815 20.7153C47.9846 15.861 48.008 15.5141 48.3815 14.7916C48.7853 14.0107 49.5597 13.5859 50.5651 13.5938C51.4043 13.6003 51.9255 13.8101 52.3745 14.322C53.1078 15.1578 53.0888 14.9962 53.1488 20.9033C53.1903 24.9895 53.2306 26.2407 53.329 26.4961C53.6976 27.4539 54.3542 27.8395 55.6368 27.8512C56.2437 27.8568 56.6066 27.8109 56.9237 27.6884C57.3748 27.5142 57.8632 27.0478 58.0604 26.6031C58.1379 26.428 58.1852 24.8075 58.2209 21.0913C58.2767 15.2937 58.2659 15.4007 58.8883 14.4951C59.709 13.3011 62.0472 13.2783 62.863 14.4564C63.4208 15.2619 63.4198 15.2519 63.4752 21.0913C63.5313 27.0019 63.5099 26.798 64.1379 27.4101C64.6102 27.8703 65.2029 28.0281 66.2942 27.9842C67.1175 27.9511 67.2605 27.9178 67.6705 27.6643C67.9618 27.4841 68.2135 27.229 68.3629 26.9622L68.5977 26.5431V20.7623C68.5977 15.0545 68.595 14.9708 68.3836 14.1356C67.7783 11.7447 66.416 10.2445 64.2304 9.5618C63.5979 9.36422 63.3488 9.34185 61.7885 9.34269C60.398 9.34344 59.9291 9.37775 59.4405 9.51452C58.0112 9.91438 56.9051 10.6788 56.1752 11.771L55.7027 12.478L55.3656 11.9315C54.686 10.8295 53.3886 9.90676 51.9739 9.51922C51.1943 9.30556 48.4406 9.25217 47.6402 9.43509ZM78.2213 9.47175C75.7153 10.0184 73.9206 11.4871 73.0335 13.7173C72.4839 15.0991 72.2754 16.4388 72.2741 18.6004C72.2721 21.8698 73.0035 24.1807 74.5211 25.6994C76.1301 27.3097 78.2556 27.9982 81.6224 27.9994C84.5957 28.0006 86.0883 27.5437 86.7384 26.4336C87.0752 25.8583 87.1545 24.7431 86.8945 24.2402C86.6179 23.7054 85.9823 23.4473 84.9415 23.4469C84.4465 23.4468 83.7434 23.5237 83.2493 23.6319C82.6323 23.7672 82.0489 23.8172 81.0891 23.8172C79.8151 23.8172 79.7568 23.8084 79.2147 23.5352C78.5674 23.2089 78.2129 22.8023 77.8959 22.0225L77.6702 21.4673L79.5299 21.4075C80.5528 21.3746 81.754 21.2991 82.1992 21.2399C85.4458 20.8075 87.3518 19.4493 87.9424 17.1472C88.1276 16.4254 88.1273 14.7918 87.9418 14.0042C87.5699 12.4255 86.3804 10.9904 84.7989 10.2127C83.4104 9.52984 82.7061 9.37841 80.7134 9.33423C79.3146 9.30331 78.8845 9.32699 78.2213 9.47175ZM128.531 9.43519C126.054 9.94897 124.26 11.2346 123.284 13.1956C122.659 14.4521 122.379 15.799 122.304 17.9086C122.129 22.8175 123.443 25.7493 126.452 27.1623C127.678 27.7378 128.494 27.9134 130.209 27.9706C133.204 28.0704 135.198 27.4002 136.831 25.7446C138.339 24.2148 139.015 22.0383 139.02 18.6944C139.023 16.2164 138.75 14.7305 138.009 13.1956C137.15 11.4174 135.55 10.1633 133.385 9.57157C132.422 9.30848 129.534 9.22727 128.531 9.43519ZM168.67 9.35444C165.643 9.92133 163.677 11.506 162.801 14.0847C162.319 15.5038 162.238 16.1401 162.237 18.5534C162.236 20.3928 162.268 20.9533 162.407 21.5891C162.839 23.5522 163.374 24.6013 164.528 25.7479C165.194 26.4101 165.492 26.6275 166.228 26.9889C167.736 27.7297 169.179 28 171.622 28C175.395 28 176.932 27.1708 176.933 25.1331C176.934 24.2957 176.732 23.9319 176.11 23.6508C175.549 23.3972 174.217 23.3848 173.178 23.6234C171.663 23.9715 169.773 23.9078 168.936 23.4805C168.419 23.2164 167.869 22.4301 167.683 21.6886L167.624 21.4504L169.626 21.39C171.883 21.3219 173.025 21.165 174.25 20.7541C176.196 20.1017 177.382 18.9214 177.842 17.1798C178.034 16.4489 178.055 14.8254 177.881 14.0886C177.494 12.4486 176.297 10.9943 174.68 10.2009C173.281 9.51367 172.589 9.36723 170.595 9.33649C169.665 9.3222 168.799 9.33019 168.67 9.35444ZM81.4776 13.4233C81.6913 13.5204 82.035 13.7525 82.2412 13.939C83.1782 14.7861 83.3747 16.6189 82.6085 17.3623C82.1584 17.7989 81.6232 17.9427 80.056 18.0482C78.1903 18.1737 78.0892 18.1923 77.7577 18.4715L77.4732 18.7111V17.8221C77.4732 16.7824 77.6857 15.4472 77.9445 14.8619C78.431 13.7611 79.2137 13.2413 80.3796 13.2447C80.8697 13.2461 81.2093 13.3013 81.4776 13.4233ZM171.44 13.4638C171.973 13.7124 172.538 14.2905 172.761 14.815C172.844 15.0099 172.933 15.4868 172.96 15.8745C173.001 16.4941 172.98 16.6307 172.78 17.0024C172.376 17.755 171.714 17.981 169.609 18.0843C168.131 18.1568 167.977 18.1874 167.634 18.4757L167.355 18.7111L167.355 17.9743C167.356 17.0984 167.567 15.6288 167.782 15.0056C167.973 14.4501 168.684 13.6459 169.184 13.4185C169.753 13.1596 170.836 13.1813 171.44 13.4638ZM31.8373 13.7209C33.3559 14.1038 34.1009 16.0536 33.953 19.2584C33.8677 21.105 33.576 22.1551 32.9497 22.8689C32.445 23.4443 32.012 23.6136 30.9358 23.6562C29.4406 23.7157 28.7172 23.3478 28.1514 22.2401C27.767 21.4878 27.6784 20.9634 27.6279 19.1439C27.5576 16.6054 27.7355 15.5872 28.4192 14.6165C29.0514 13.7188 30.4133 13.362 31.8373 13.7209ZM131.856 13.7684C132.476 13.9633 132.934 14.3865 133.248 15.0568C133.718 16.0583 133.779 16.4849 133.774 18.7414C133.77 20.7379 133.761 20.8359 133.513 21.5815C133.192 22.5445 132.793 23.0873 132.181 23.3942C131.762 23.604 131.596 23.6292 130.632 23.6292C129.423 23.6292 129.071 23.5099 128.505 22.909C127.723 22.0772 127.495 21.1144 127.495 18.6474C127.495 16.6072 127.6 15.9121 128.04 15.0512C128.697 13.7637 130.216 13.2532 131.856 13.7684ZM152.374 13.7643C153.238 14.003 153.769 14.6306 154.159 15.8745C154.276 16.2475 154.335 16.8496 154.369 18.0364C154.443 20.6252 154.174 21.8751 153.348 22.7795C152.758 23.425 152.148 23.6764 151.173 23.6756C150.351 23.675 149.966 23.5752 149.402 23.2173C148.297 22.5164 147.895 21.2597 147.895 18.5064C147.895 16.2092 148.178 15.0741 148.93 14.3398C149.692 13.5971 150.987 13.3807 152.374 13.7643Z" fill="#7E46F8"/>
</svg>
